<svg width="800" height="569" viewBox="0 0 800 569" fill="none" xmlns="http://www.w3.org/2000/svg">
<path fill-rule="evenodd" clip-rule="evenodd" d="M745.977 125.587L372.989 2.59886L0 125.587L95.7643 157.165V230.76C70.2166 251.902 68.7774 264.525 95.7643 288.806C64.712 321.734 56.7073 345.554 58.9827 397.426C91.751 414.718 110.123 412.169 142.891 397.426C143.977 341.665 139.622 314.883 107.833 288.806C133.093 265.944 134.36 253.243 107.833 230.76V161.144L372.989 248.576L745.977 125.587ZM606.897 298.001C485.228 318.908 434.457 340.293 372.989 394.553C311.52 340.293 260.749 318.908 139.08 298.001C140.958 261.319 147.445 240.941 167.746 204.898L372.989 268.691L578.231 204.898C598.532 240.941 605.019 261.319 606.897 298.001ZM666.094 408.132C773.561 360.771 822.286 235.259 774.925 127.792C727.565 20.3254 602.052 -28.4 494.586 18.9608C387.119 66.3215 338.394 191.834 385.754 299.301C433.115 406.767 558.628 455.493 666.094 408.132Z" fill="black"/>
<path d="M99.6212 492.649H82.4582C82.1447 490.428 81.5047 488.456 80.5381 486.732C79.5716 484.982 78.3307 483.493 76.8156 482.265C75.3004 481.037 73.5502 480.097 71.5648 479.444C69.6055 478.791 67.4765 478.464 65.1776 478.464C61.024 478.464 57.406 479.496 54.3234 481.56C51.2409 483.597 48.8506 486.575 47.1526 490.494C45.4545 494.386 44.6055 499.114 44.6055 504.679C44.6055 510.4 45.4545 515.206 47.1526 519.099C48.8767 522.991 51.28 525.93 54.3626 527.915C57.4451 529.901 61.011 530.893 65.0601 530.893C67.3328 530.893 69.4357 530.593 71.3689 529.992C73.3281 529.391 75.0653 528.516 76.5805 527.367C78.0956 526.191 79.3495 524.768 80.3422 523.096C81.361 521.424 82.0664 519.517 82.4582 517.375L99.6212 517.453C99.1771 521.136 98.0669 524.689 96.2905 528.111C94.5402 531.507 92.1761 534.551 89.198 537.241C86.2461 539.906 82.7194 542.022 78.6181 543.589C74.5428 545.131 69.9321 545.901 64.7858 545.901C57.628 545.901 51.2278 544.282 45.5852 541.042C39.9687 537.803 35.5277 533.114 32.2623 526.975C29.023 520.836 27.4033 513.404 27.4033 504.679C27.4033 495.927 29.0491 488.482 32.3406 482.343C35.6322 476.204 40.0993 471.528 45.7419 468.315C51.3845 465.076 57.7325 463.456 64.7858 463.456C69.4357 463.456 73.7461 464.109 77.7168 465.415C81.7137 466.722 85.2534 468.629 88.336 471.136C91.4185 473.618 93.9263 476.661 95.8595 480.267C97.8187 483.872 99.0726 487.999 99.6212 492.649ZM128.167 510.008V544.804H111.475V464.553H127.697V495.235H128.403C129.761 491.682 131.955 488.9 134.986 486.889C138.016 484.851 141.817 483.832 146.388 483.832C150.568 483.832 154.212 484.747 157.321 486.575C160.456 488.378 162.885 490.977 164.609 494.373C166.36 497.743 167.222 501.779 167.196 506.481V544.804H150.503V509.459C150.529 505.75 149.589 502.863 147.682 500.799C145.801 498.736 143.162 497.704 139.766 497.704C137.493 497.704 135.482 498.187 133.732 499.154C132.008 500.12 130.649 501.531 129.656 503.386C128.69 505.214 128.194 507.422 128.167 510.008ZM207.762 545.98C201.571 545.98 196.242 544.726 191.774 542.218C187.333 539.684 183.911 536.105 181.508 531.481C179.105 526.831 177.903 521.332 177.903 514.984C177.903 508.793 179.105 503.36 181.508 498.683C183.911 494.007 187.294 490.363 191.657 487.751C196.046 485.139 201.192 483.832 207.096 483.832C211.066 483.832 214.763 484.472 218.185 485.752C221.633 487.006 224.638 488.9 227.198 491.434C229.784 493.968 231.795 497.155 233.232 500.995C234.669 504.809 235.387 509.276 235.387 514.397V518.981H184.564V508.636H219.674C219.674 506.233 219.152 504.104 218.107 502.249C217.062 500.395 215.612 498.945 213.757 497.9C211.929 496.829 209.8 496.293 207.37 496.293C204.836 496.293 202.589 496.881 200.63 498.056C198.697 499.206 197.182 500.76 196.085 502.719C194.988 504.653 194.426 506.808 194.4 509.185V519.02C194.4 521.998 194.948 524.572 196.046 526.74C197.169 528.908 198.749 530.58 200.787 531.756C202.825 532.931 205.241 533.519 208.036 533.519C209.891 533.519 211.589 533.258 213.13 532.735C214.672 532.213 215.991 531.429 217.088 530.384C218.185 529.339 219.021 528.059 219.596 526.544L235.035 527.563C234.251 531.272 232.644 534.512 230.215 537.281C227.812 540.024 224.703 542.166 220.889 543.707C217.101 545.222 212.725 545.98 207.762 545.98ZM263.444 545.941C259.604 545.941 256.181 545.274 253.177 543.942C250.173 542.584 247.796 540.585 246.046 537.947C244.321 535.282 243.459 531.965 243.459 527.994C243.459 524.65 244.073 521.842 245.301 519.569C246.529 517.296 248.201 515.468 250.317 514.083C252.433 512.699 254.836 511.654 257.527 510.948C260.244 510.243 263.091 509.747 266.069 509.459C269.57 509.094 272.391 508.754 274.533 508.44C276.675 508.101 278.23 507.605 279.196 506.951C280.163 506.298 280.646 505.332 280.646 504.052V503.817C280.646 501.335 279.862 499.415 278.295 498.056C276.754 496.698 274.559 496.019 271.712 496.019C268.708 496.019 266.317 496.685 264.541 498.017C262.765 499.323 261.589 500.969 261.014 502.955L245.575 501.701C246.359 498.043 247.9 494.883 250.199 492.218C252.498 489.527 255.463 487.463 259.094 486.027C262.751 484.564 266.983 483.832 271.79 483.832C275.134 483.832 278.334 484.224 281.39 485.008C284.473 485.792 287.203 487.006 289.58 488.652C291.983 490.298 293.877 492.414 295.262 495C296.646 497.56 297.339 500.63 297.339 504.209V544.804H281.508V536.458H281.038C280.071 538.339 278.778 539.997 277.158 541.434C275.539 542.845 273.593 543.955 271.32 544.765C269.047 545.549 266.422 545.941 263.444 545.941ZM268.224 534.42C270.68 534.42 272.848 533.937 274.729 532.97C276.61 531.978 278.086 530.645 279.157 528.973C280.228 527.302 280.763 525.408 280.763 523.292V516.904C280.241 517.244 279.523 517.558 278.608 517.845C277.72 518.106 276.714 518.354 275.591 518.589C274.468 518.798 273.344 518.994 272.221 519.177C271.098 519.334 270.079 519.478 269.165 519.608C267.205 519.896 265.494 520.353 264.031 520.98C262.569 521.607 261.432 522.456 260.622 523.527C259.813 524.572 259.408 525.878 259.408 527.445C259.408 529.718 260.231 531.455 261.876 532.657C263.548 533.832 265.664 534.42 268.224 534.42ZM342.303 484.616V497.155H306.057V484.616H342.303ZM314.286 470.196H330.979V526.309C330.979 527.85 331.214 529.052 331.684 529.914C332.155 530.75 332.808 531.338 333.644 531.677C334.506 532.017 335.498 532.187 336.622 532.187C337.405 532.187 338.189 532.121 338.973 531.991C339.756 531.834 340.357 531.716 340.775 531.638L343.401 544.06C342.565 544.321 341.389 544.621 339.874 544.961C338.359 545.327 336.517 545.549 334.349 545.627C330.326 545.784 326.799 545.248 323.769 544.02C320.765 542.793 318.427 540.886 316.755 538.299C315.083 535.713 314.26 532.448 314.286 528.503V470.196ZM371.751 464.553V544.804H354.784V464.553H371.751ZM402.09 510.008V544.804H385.397V484.616H401.306V495.235H402.012C403.344 491.735 405.577 488.966 408.712 486.928C411.847 484.864 415.648 483.832 420.115 483.832C424.295 483.832 427.939 484.747 431.048 486.575C434.156 488.404 436.573 491.016 438.297 494.412C440.021 497.782 440.883 501.805 440.883 506.481V544.804H424.19V509.459C424.216 505.776 423.276 502.902 421.369 500.839C419.462 498.749 416.836 497.704 413.493 497.704C411.246 497.704 409.261 498.187 407.537 499.154C405.839 500.12 404.506 501.531 403.54 503.386C402.599 505.214 402.116 507.422 402.09 510.008ZM497.887 487.633C497.574 484.472 496.228 482.017 493.851 480.267C491.474 478.516 488.248 477.641 484.173 477.641C481.404 477.641 479.065 478.033 477.158 478.817C475.251 479.574 473.789 480.632 472.77 481.991C471.777 483.349 471.281 484.89 471.281 486.614C471.228 488.051 471.529 489.305 472.182 490.376C472.861 491.447 473.789 492.375 474.964 493.158C476.14 493.916 477.498 494.582 479.039 495.157C480.581 495.705 482.226 496.176 483.977 496.567L491.187 498.292C494.687 499.075 497.9 500.12 500.826 501.426C503.752 502.733 506.286 504.339 508.428 506.246C510.57 508.153 512.229 510.4 513.405 512.986C514.606 515.572 515.22 518.537 515.246 521.881C515.22 526.792 513.966 531.05 511.484 534.655C509.029 538.234 505.476 541.016 500.826 543.002C496.202 544.961 490.625 545.941 484.094 545.941C477.616 545.941 471.973 544.948 467.166 542.962C462.386 540.977 458.65 538.038 455.959 534.146C453.295 530.227 451.897 525.381 451.767 519.608H468.185C468.368 522.299 469.139 524.546 470.497 526.348C471.882 528.124 473.723 529.47 476.022 530.384C478.347 531.272 480.972 531.716 483.898 531.716C486.772 531.716 489.267 531.298 491.383 530.462C493.525 529.626 495.184 528.464 496.359 526.975C497.535 525.486 498.122 523.775 498.122 521.842C498.122 520.039 497.587 518.524 496.516 517.296C495.471 516.069 493.93 515.024 491.892 514.162C489.881 513.299 487.412 512.516 484.486 511.81L475.748 509.616C468.982 507.97 463.64 505.397 459.721 501.897C455.803 498.396 453.856 493.681 453.883 487.751C453.856 482.892 455.15 478.647 457.762 475.016C460.4 471.385 464.018 468.55 468.616 466.513C473.214 464.475 478.439 463.456 484.29 463.456C490.246 463.456 495.445 464.475 499.886 466.513C504.353 468.55 507.827 471.385 510.309 475.016C512.791 478.647 514.071 482.853 514.149 487.633H497.887ZM526.345 544.804V484.616H543.038V544.804H526.345ZM534.731 476.857C532.249 476.857 530.12 476.035 528.344 474.389C526.594 472.717 525.718 470.718 525.718 468.393C525.718 466.095 526.594 464.122 528.344 462.477C530.12 460.805 532.249 459.969 534.731 459.969C537.213 459.969 539.329 460.805 541.079 462.477C542.855 464.122 543.743 466.095 543.743 468.393C543.743 470.718 542.855 472.717 541.079 474.389C539.329 476.035 537.213 476.857 534.731 476.857ZM583.526 568.629C578.118 568.629 573.482 567.884 569.615 566.395C565.775 564.932 562.719 562.934 560.446 560.4C558.173 557.866 556.697 555.018 556.018 551.857L571.457 549.781C571.927 550.982 572.672 552.106 573.691 553.151C574.709 554.195 576.055 555.031 577.727 555.658C579.425 556.311 581.488 556.638 583.918 556.638C587.549 556.638 590.54 555.75 592.891 553.973C595.268 552.223 596.457 549.284 596.457 545.157V534.146H595.752C595.02 535.818 593.923 537.398 592.46 538.887C590.997 540.376 589.116 541.591 586.818 542.531C584.519 543.472 581.776 543.942 578.589 543.942C574.069 543.942 569.955 542.897 566.245 540.807C562.562 538.691 559.623 535.465 557.429 531.129C555.261 526.766 554.176 521.254 554.176 514.593C554.176 507.774 555.287 502.079 557.507 497.508C559.728 492.936 562.68 489.514 566.363 487.241C570.072 484.969 574.135 483.832 578.55 483.832C581.919 483.832 584.741 484.407 587.013 485.556C589.286 486.68 591.115 488.09 592.499 489.788C593.91 491.46 594.994 493.106 595.752 494.726H596.379V484.616H612.954V545.392C612.954 550.512 611.7 554.796 609.192 558.245C606.684 561.693 603.21 564.279 598.769 566.003C594.354 567.753 589.273 568.629 583.526 568.629ZM583.879 531.403C586.569 531.403 588.842 530.737 590.697 529.404C592.578 528.046 594.015 526.113 595.007 523.605C596.026 521.071 596.535 518.041 596.535 514.514C596.535 510.988 596.039 507.931 595.046 505.345C594.054 502.733 592.617 500.708 590.736 499.271C588.855 497.834 586.569 497.116 583.879 497.116C581.136 497.116 578.824 497.861 576.943 499.35C575.062 500.812 573.638 502.85 572.672 505.462C571.705 508.075 571.222 511.092 571.222 514.514C571.222 517.989 571.705 520.993 572.672 523.527C573.664 526.035 575.088 527.981 576.943 529.365C578.824 530.724 581.136 531.403 583.879 531.403ZM642.93 510.008V544.804H626.238V464.553H642.46V495.235H643.166C644.524 491.682 646.718 488.9 649.749 486.889C652.779 484.851 656.58 483.832 661.151 483.832C665.331 483.832 668.975 484.747 672.084 486.575C675.219 488.378 677.648 490.977 679.372 494.373C681.123 497.743 681.985 501.779 681.959 506.481V544.804H665.266V509.459C665.292 505.75 664.352 502.863 662.445 500.799C660.564 498.736 657.925 497.704 654.529 497.704C652.256 497.704 650.245 498.187 648.495 499.154C646.771 500.12 645.412 501.531 644.419 503.386C643.453 505.214 642.957 507.422 642.93 510.008ZM727.109 484.616V497.155H690.863V484.616H727.109ZM699.092 470.196H715.785V526.309C715.785 527.85 716.02 529.052 716.49 529.914C716.961 530.75 717.614 531.338 718.45 531.677C719.312 532.017 720.304 532.187 721.428 532.187C722.211 532.187 722.995 532.121 723.779 531.991C724.562 531.834 725.163 531.716 725.581 531.638L728.207 544.06C727.371 544.321 726.195 544.621 724.68 544.961C723.165 545.327 721.323 545.549 719.155 545.627C715.132 545.784 711.605 545.248 708.575 544.02C705.571 542.793 703.233 540.886 701.561 538.299C699.889 535.713 699.066 532.448 699.092 528.503V470.196ZM787.307 501.779L772.025 502.719C771.764 501.413 771.202 500.238 770.34 499.193C769.478 498.122 768.342 497.273 766.931 496.646C765.547 495.993 763.888 495.666 761.955 495.666C759.369 495.666 757.187 496.215 755.411 497.312C753.634 498.383 752.746 499.82 752.746 501.622C752.746 503.059 753.321 504.274 754.47 505.267C755.62 506.259 757.592 507.056 760.387 507.657L771.281 509.851C777.132 511.053 781.495 512.986 784.369 515.651C787.242 518.315 788.679 521.816 788.679 526.152C788.679 530.097 787.516 533.558 785.191 536.536C782.893 539.514 779.732 541.839 775.709 543.511C771.712 545.157 767.101 545.98 761.876 545.98C753.909 545.98 747.561 544.321 742.832 541.003C738.13 537.659 735.374 533.114 734.564 527.367L750.983 526.505C751.479 528.934 752.681 530.789 754.588 532.069C756.495 533.323 758.938 533.95 761.916 533.95C764.841 533.95 767.192 533.388 768.969 532.265C770.771 531.116 771.686 529.64 771.712 527.837C771.686 526.322 771.046 525.081 769.792 524.114C768.538 523.122 766.605 522.364 763.992 521.842L753.569 519.765C747.691 518.589 743.316 516.552 740.442 513.652C737.595 510.752 736.171 507.056 736.171 502.563C736.171 498.697 737.216 495.366 739.306 492.571C741.422 489.775 744.387 487.62 748.201 486.105C752.041 484.59 756.534 483.832 761.68 483.832C769.282 483.832 775.265 485.439 779.627 488.652C784.016 491.865 786.576 496.241 787.307 501.779Z" fill="black"/>
</svg>
